<svg width="20" height="13" viewBox="0 0 20 13" fill="none" xmlns="http://www.w3.org/2000/svg">
<path fill-rule="evenodd" clip-rule="evenodd" d="M19.7478 6.6029C19.7478 6.41964 19.6762 6.24389 19.5488 6.1143C19.4214 5.98472 19.2485 5.91192 19.0683 5.91192L3.04349 5.91192L7.31978 1.56425C7.38295 1.50001 7.43306 1.42374 7.46724 1.3398C7.50143 1.25586 7.51903 1.16589 7.51903 1.07503C7.51903 0.984179 7.50143 0.894213 7.46724 0.810273C7.43306 0.726333 7.38295 0.650063 7.31978 0.585818C7.25661 0.521574 7.18162 0.470612 7.09908 0.435843C7.01654 0.401074 6.92808 0.383179 6.83875 0.383179C6.74941 0.383179 6.66095 0.401074 6.57841 0.435843C6.49588 0.470612 6.42089 0.521574 6.35772 0.585818L0.922338 6.11369C0.859066 6.17787 0.808866 6.25412 0.774615 6.33807C0.740363 6.42202 0.722732 6.51201 0.722732 6.6029C0.722732 6.69379 0.740363 6.78378 0.774615 6.86773C0.808866 6.95168 0.859066 7.02793 0.922338 7.09212L6.35772 12.62C6.42089 12.6842 6.49588 12.7352 6.57841 12.77C6.66095 12.8047 6.74941 12.8226 6.83875 12.8226C6.92808 12.8226 7.01654 12.8047 7.09908 12.77C7.18161 12.7352 7.25661 12.6842 7.31978 12.62C7.38295 12.5557 7.43306 12.4795 7.46724 12.3955C7.50143 12.3116 7.51903 12.2216 7.51903 12.1308C7.51903 12.0399 7.50143 11.9499 7.46724 11.866C7.43306 11.7821 7.38295 11.7058 7.31978 11.6416L3.04349 7.29388L19.0683 7.29388C19.2485 7.29388 19.4214 7.22109 19.5488 7.0915C19.6762 6.96192 19.7478 6.78616 19.7478 6.6029Z" fill="#717171"/>
</svg>
